# xmcd
# 
# Track frame offsets:
#     150
#     16739
#     30848
#     46555
#     60545
#     73816
#     88073
#     101046
#     116839
#     132375
#     146710
#     162925
# 
# Disc length: 2410
# 
# Revision: 4
# Processed by: cddbd v1.5.2PL0 Copyright (c) Steve Scherf et al.
# Submitted via: fre:ac v1.0.31
# 
DISCID=9d09680c
DTITLE=JULIA PIETRUCHA - POSTCARDS FROM THE SEASIDE
DYEAR=2018
DGENRE=Blues
TTITLE0=SAILOR
TTITLE1=FRIENDS
TTITLE2=EWKA
TTITLE3=UNDA DA SEA
TTITLE4=NIEBIESKI
TTITLE5=MEDEA
TTITLE6=WASTED
TTITLE7=NIE POTRZEBUJEMY NIC
TTITLE8=MINDLESS CRIME
TTITLE9=WHO KNOWS
TTITLE10=SMALL TOWN BLUES
TTITLE11=HEAVENTUALLY
EXTD=
EXTT0=
EXTT1=
EXTT2=
EXTT3=
EXTT4=
EXTT5=
EXTT6=
EXTT7=
EXTT8=
EXTT9=
EXTT10=
EXTT11=
PLAYORDER=
